# xmcd
# 
# Track frame offsets:
#     150
#     70277
#     94372
#     148000
# 
# Disc length: 2776
# 
# Revision: 2
# Processed by: cddbd v1.5.2PL0 Copyright (c) Steve Scherf et al.
# Submitted via: fre:ac v1.0.17
# 
DISCID=390ad604
DTITLE=Franck - Roge and Ysaye Quartet - Chamber
DYEAR=0
DGENRE=
TTITLE0=String Quartet in D I Poco lento Allegro
TTITLE1=String Quartet in D II Scherzo Vivace
TTITLE2=String Quartet in D III LArghetto
TTITLE3=String Quartet in D IV Finale Allegro molto
EXTD=
EXTT0=
EXTT1=
EXTT2=
EXTT3=
PLAYORDER=
